<svg height="2500" viewBox="-.9 2.3 623.3 616.8" width="2500" xmlns="http://www.w3.org/2000/svg"><path d="m293.5 3.1c-51 2.5-97.7 16.6-140.4 42.3-23.9 14.4-52.3 38.1-71.2 59.1-56.9 63.6-82.8 136.8-78.8 223 2.4 51.9 16.3 98.1 42.4 141.5 30.8 51.1 82.6 98.2 134.7 122.4 41 19.1 81.8 27.7 130.8 27.7 64.5 0 118.6-15.8 168.5-49.2 30.7-20.5 57.1-45.7 80.1-76.2 43.1-57.4 62.8-123.5 59.3-199.2-2-42.7-10.9-78.9-28.4-115.2-22.3-46.3-54.9-85.6-97.7-117.5-46.4-34.8-102.5-55.4-158.3-58.3-22.6-1.1-26.3-1.2-41-.4zm-73.8 190.8c16.5 4.1 30.9 12.7 43.5 25.9 18.6 19.5 28.9 44.4 32.7 78.4.6 5.4 1.1 12.4 1.1 15.8v6h-172.3l.6 11.2c1.8 33.1 18.7 55.5 48.4 64 10.3 3 32.3 3.2 42.3.5 19.3-5.2 35.8-20.3 38.6-35.3l.6-3.4h38l-.8 3.2c-5.7 26.4-22.4 47.7-47.1 60.2-17.3 8.7-44.4 12.5-68 9.6-24-3-42.6-11.6-58.4-27-16.3-16-25.4-34.2-31.2-62.5-2.9-14.6-3.2-46.5-.5-59.1 6.7-30.9 23.2-57.1 45.6-72.3 12.2-8.3 29-15 42.7-17.1 10-1.5 34.8-.5 44.2 1.9zm171.2 38.6c15.6 22.8 28.7 41.5 29.2 41.5.4 0 13.9-18.5 30-41.1s29.7-41.3 30.3-41.5 11.4-.3 23.9-.2l22.8.3-39.7 53c-21.8 29.1-40.3 54-41.1 55.2-1.4 2.1.7 5.2 43.9 65.5 25 34.8 45.8 63.9 46.2 64.5.6 1-4.6 1.3-24.6 1.3l-25.3-.1-32.9-48.9c-18-27-33.1-49-33.5-49s-15.6 22-33.7 49l-32.9 48.9-23.7.1c-13.1 0-23.8-.2-23.8-.4 0-.3 20-28.5 44.5-62.8s44.3-62.8 44.1-63.4c-.3-.7-18.7-26-41-56.4s-40.6-55.6-40.6-56.1 10.9-.9 24.8-.9h24.7z"/><path d="m181 225c-14.6 1.9-25.4 7.3-36.1 18-6.3 6.1-8.4 9.2-12.2 17-4.3 8.9-7.7 20.7-7.7 26.4v2.6h131v-3.3c0-5.9-3.8-18.5-8-26.6-9.7-18.7-27.3-31.1-48.4-34-8.4-1.2-10.4-1.2-18.6-.1z"/></svg>